# File produced by Open Asset Import Library (http://www.assimp.sf.net)
# (assimp v3.1.202510665)

mtllib rpg_rocket.mtl

# vertex positions
v 0.636990 3.113042 16.892776
v 0.221964 3.414576 16.892776
v 0.221964 3.414577 17.360298
v 0.636991 3.113042 17.360298
v -0.291039 3.414576 16.892776
v -0.291039 3.414576 17.360298
v -0.706066 3.113042 16.892776
v -0.706066 3.113041 17.360298
v -0.864591 2.625147 16.892776
v -0.864593 2.625147 17.360298
v -0.706066 2.137253 16.892776
v -0.706066 2.137253 17.360298
v -0.291039 1.835718 16.892776
v -0.291039 1.835718 17.360298
v 0.221964 1.835718 16.892776
v 0.221964 1.835718 17.360298
v 0.636990 2.137253 16.892776
v 0.636991 2.137253 17.360298
v 0.795516 2.625147 16.892776
v 0.795518 2.625147 17.360298
v 0.636991 3.113042 17.995049
v 0.221964 3.414577 17.995049
v 0.170663 3.256691 17.995049
v 0.502685 3.015463 17.995049
v -0.291039 3.414576 17.995049
v -0.239739 3.256691 17.995049
v -0.706066 3.113041 17.995049
v -0.571761 3.015463 17.995049
v -0.864593 2.625147 17.995049
v -0.698582 2.625147 17.995049
v -0.706066 2.137253 17.995049
v -0.571761 2.234832 17.995049
v -0.291039 1.835718 17.995049
v -0.239738 1.993604 17.995049
v 0.221964 1.835718 17.995049
v 0.170663 1.993604 17.995049
v 0.636991 2.137253 17.995049
v 0.502685 2.234832 17.995049
v 0.795518 2.625147 17.995049
v 0.629507 2.625147 17.995049
v 0.170664 3.256691 18.321074
v 0.502685 3.015463 18.321074
v -0.239738 3.256691 18.321074
v -0.571761 3.015463 18.321074
v -0.698582 2.625147 18.330872
v -0.571760 2.234832 18.330872
v -0.239738 1.993604 18.321074
v 0.170664 1.993604 18.321074
v 0.502686 2.234832 18.330872
v 0.629507 2.625147 18.330872
v 1.312260 3.603653 13.539227
v 0.479894 4.208403 13.539227
v -0.548970 4.208403 13.539227
v -1.381335 3.603653 13.539227
v -1.699268 2.625147 13.539227
v -1.381335 1.646642 13.539227
v -0.548970 1.041891 13.539227
v 0.479894 1.041891 13.539227
v 1.312260 1.646642 13.539227
v 1.630193 2.625147 13.539227
v 1.395120 3.663855 13.304484
v 0.511544 4.305812 13.304484
v 0.522410 4.339253 13.516396
v 1.423568 3.684523 13.516396
v -0.580620 4.305812 13.304484
v -0.591485 4.339253 13.516396
v -1.464196 3.663855 13.304484
v -1.492643 3.684523 13.516397
v -1.801689 2.625147 13.304484
v -1.836852 2.625147 13.516397
v -1.464196 1.586440 13.304484
v -1.492643 1.565772 13.516396
v -0.580619 0.944483 13.304484
v -0.591485 0.911041 13.516396
v 0.511544 0.944483 13.304484
v 0.522410 0.911041 13.516396
v 1.395120 1.586440 13.304484
v 1.423567 1.565772 13.516397
v 1.732614 2.625147 13.304484
v 1.767777 2.625147 13.516397
v 0.221964 3.414577 8.508893
v 0.636991 3.113042 8.508893
v 0.835825 3.257503 8.010946
v 0.297911 3.648320 8.010946
v -0.291039 3.414576 8.508893
v -0.366987 3.648320 8.010946
v -0.706066 3.113041 8.508893
v -0.904901 3.257503 8.010946
v -0.864593 2.625147 8.508893
v -1.110365 2.625147 8.010946
v -0.706066 2.137253 8.508893
v -0.904901 1.992792 8.010946
v -0.291039 1.835718 8.508893
v -0.366987 1.601974 8.010946
v 0.221964 1.835718 8.508893
v 0.297912 1.601974 8.010946
v 0.636991 2.137253 8.508893
v 0.835825 1.992792 8.010946
v 0.795518 2.625147 8.508893
v 1.041290 2.625147 8.010946
v 0.255583 3.257503 8.010946
v 0.076279 3.648320 8.010946
v -0.324659 3.257503 8.010946
v -0.145354 3.648320 8.010946
v -0.393147 2.625147 8.010946
v 0.324072 2.625147 8.010946
v -0.324659 1.992792 8.010946
v 0.255583 1.992792 8.010946
v -0.145354 1.601974 8.010946
v 0.076279 1.601974 8.010946
v 0.469028 4.174963 13.327313
v 1.283813 3.582985 13.327313
v -0.538104 4.174963 13.327313
v -1.352888 3.582985 13.327313
v -1.664106 2.625147 13.327313
v -1.352888 1.667309 13.327313
v -0.538104 1.075332 13.327313
v 0.469029 1.075332 13.327313
v 1.283813 1.667309 13.327313
v 1.595031 2.625147 13.327313
v 0.033863 3.256691 18.321074
v 0.144537 3.015463 18.321074
v -0.102938 3.256691 18.321074
v -0.213612 3.015463 18.321074
v -0.255885 2.625147 18.330872
v 0.186811 2.625147 18.330872
v -0.213611 2.234832 18.330872
v 0.144538 2.234832 18.330872
v -0.102938 1.993604 18.321074
v 0.033863 1.993604 18.321074

# UV coordinates
vt 0.573961 0.225377
vt 0.591326 0.267590
vt 0.552579 0.278949
vt 0.537027 0.238794
vt 0.604091 0.312165
vt 0.564334 0.320250
vt 0.611938 0.358310
vt 0.571613 0.362558
vt 0.614651 0.405268
vt 0.574095 0.405460
vt 0.612183 0.452296
vt 0.571697 0.448447
vt 0.604668 0.498669
vt 0.564546 0.491014
vt 0.592399 0.543689
vt 0.553008 0.532761
vt 0.575733 0.586635
vt 0.537804 0.573563
vt 0.554844 0.626586
vt 0.520464 0.614057
vt 0.552215 0.186483
vt 0.519141 0.199214
vt 0.573080 0.763680
vt 0.559442 0.805673
vt 0.547882 0.797276
vt 0.558792 0.763682
vt 0.523726 0.831629
vt 0.519309 0.818041
vt 0.479574 0.831635
vt 0.483987 0.818046
vt 0.443851 0.805688
vt 0.455409 0.797288
vt 0.430201 0.763698
vt 0.444489 0.763697
vt 0.443839 0.721706
vt 0.455400 0.730102
vt 0.479556 0.695749
vt 0.483973 0.709337
vt 0.523708 0.695743
vt 0.519295 0.709332
vt 0.559431 0.721690
vt 0.547873 0.730090
vt 0.948644 0.283457
vt 0.948645 0.318779
vt 0.920585 0.318779
vt 0.920585 0.283458
vt 0.948646 0.354100
vt 0.920586 0.354101
vt 0.948647 0.389422
vt 0.920587 0.389423
vt 0.948648 0.424744
vt 0.919745 0.424744
vt 0.948649 0.460065
vt 0.919746 0.460066
vt 0.948649 0.495387
vt 0.920590 0.495388
vt 0.948650 0.530709
vt 0.920590 0.530709
vt 0.948651 0.566030
vt 0.919748 0.566031
vt 0.948652 0.601352
vt 0.919749 0.601353
vt 0.948644 0.248135
vt 0.919741 0.248136
vt 0.831219 0.073760
vt 0.869020 0.152444
vt 0.895691 0.234634
vt 0.911586 0.318954
vt 0.916929 0.404225
vt 0.911853 0.489362
vt 0.896428 0.573316
vt 0.870641 0.655041
vt 0.834346 0.733422
vt 0.787194 0.807136
vt 0.781745 0.000379
vt 0.945471 0.822143
vt 0.956052 0.731637
vt 0.974795 0.733415
vt 0.963941 0.824476
vt 0.963650 0.640975
vt 0.982453 0.642114
vt 0.968200 0.550104
vt 0.987031 0.550612
vt 0.969695 0.459132
vt 0.988532 0.459007
vt 0.968132 0.368161
vt 0.986954 0.367403
vt 0.963513 0.277294
vt 0.982299 0.275904
vt 0.955851 0.186627
vt 0.974569 0.184614
vt 0.945254 0.096159
vt 0.963712 0.093510
vt 0.930866 0.003651
vt 0.949828 0.000003
vt 0.930725 0.914228
vt 0.949557 0.918303
vt 0.485895 0.255499
vt 0.469760 0.216356
vt 0.469826 0.596783
vt 0.485786 0.556688
vt 0.499905 0.518314
vt 0.510620 0.480538
vt 0.517232 0.442856
vt 0.519465 0.405181
vt 0.517253 0.367610
vt 0.510677 0.330249
vt 0.500009 0.293039
vt 0.383393 0.743708
vt 0.358093 0.779892
vt 0.315548 0.758120
vt 0.348340 0.711222
vt 0.417552 0.715734
vt 0.392613 0.674965
vt 0.458014 0.698062
vt 0.445055 0.652060
vt 0.501750 0.692015
vt 0.501741 0.644223
vt 0.545488 0.698045
vt 0.558429 0.652039
vt 0.585956 0.715702
vt 0.610880 0.674923
vt 0.620126 0.743663
vt 0.655167 0.711164
vt 0.645440 0.779838
vt 0.687977 0.758049
vt 0.660005 0.821518
vt 0.706854 0.812071
vt 0.343543 0.821578
vt 0.296690 0.812149
vt 0.523246 0.167496
vt 0.468824 0.185184
vt 0.498174 0.144780
vt 0.534457 0.152063
vt 0.527524 0.104376
vt 0.545668 0.136630
vt 0.556874 0.063972
vt 0.556879 0.121197
vt 0.523234 0.017679
vt 0.486955 0.067621
vt 0.450676 0.117563
vt 0.414398 0.167506
vt 0.468808 0.000000
vt 0.439458 0.040404
vt 0.410108 0.080808
vt 0.380758 0.121212
vt 0.414385 0.017688
vt 0.403174 0.033121
vt 0.391964 0.048554
vt 0.380753 0.063987
vt 0.455671 0.243461
vt 0.440351 0.284870
vt 0.039222 0.159137
vt 0.069299 0.077842
vt 0.429294 0.327615
vt 0.017514 0.243054
vt 0.422611 0.371258
vt 0.004395 0.328735
vt 0.420372 0.415353
vt 0.000000 0.415304
vt 0.422601 0.459449
vt 0.004374 0.501873
vt 0.429273 0.503094
vt 0.017473 0.587557
vt 0.440320 0.545842
vt 0.039162 0.671479
vt 0.455630 0.587254
vt 0.069219 0.752781
vt 0.475047 0.626908
vt 0.107337 0.830629
vt 0.475097 0.203812
vt 0.107435 0.000003
vt 0.934148 0.820364
vt 0.944566 0.730359
vt 0.986188 0.734702
vt 0.975303 0.826002
vt 0.952121 0.640080
vt 0.993886 0.643019
vt 0.956647 0.549597
vt 0.998488 0.551131
vt 0.958131 0.459013
vt 1.000000 0.459141
vt 0.956571 0.368431
vt 0.998420 0.367152
vt 0.951968 0.277952
vt 0.993750 0.275268
vt 0.944338 0.187675
vt 0.985986 0.183597
vt 0.933797 0.097737
vt 0.974992 0.092244
vt 0.919741 0.009386
vt 0.961946 0.002206
vt 0.919827 0.908518
vt 0.961918 0.916139
vt 0.579532 0.010919
vt 0.613124 0.000004
vt 0.624322 0.003642
vt 0.608847 0.020444
vt 0.635520 0.007280
vt 0.638163 0.029969
vt 0.646717 0.010918
vt 0.667479 0.039494
vt 0.667477 0.074825
vt 0.631240 0.063052
vt 0.595004 0.051279
vt 0.558767 0.039506
vt 0.646716 0.103401
vt 0.617400 0.093877
vt 0.588084 0.084352
vt 0.558768 0.074827
vt 0.613118 0.114333
vt 0.601920 0.110695
vt 0.590722 0.107057
vt 0.579525 0.103419

# vertex normals
vn 0.574152 0.790250 0.214136
vn 0.587785 0.809017 0.000000
vn 0.000000 0.976804 0.214136
vn -0.000001 1.000000 0.000000
vn -0.574152 0.790250 0.214136
vn -0.587785 0.809017 0.000000
vn -0.928996 0.301847 0.214136
vn -0.951057 0.309016 -0.000001
vn -0.928996 -0.301847 0.214136
vn -0.928996 -0.301847 0.214136
vn -0.951057 -0.309017 -0.000001
vn -0.574152 -0.790250 0.214136
vn -0.587785 -0.809017 -0.000000
vn 0.000000 -0.976804 0.214136
vn -0.000000 -1.000000 -0.000000
vn 0.574152 -0.790250 0.214136
vn 0.587786 -0.809017 0.000000
vn 0.928996 -0.301847 0.214136
vn 0.951057 -0.309017 -0.000001
vn 0.928996 0.301847 0.214136
vn 0.951057 0.309016 -0.000001
vn 0.000000 0.000001 1.000000
vn 0.000000 -0.000001 1.000000
vn 0.000000 -0.000002 1.000000
vn 0.000000 0.000000 1.000000
vn 0.587786 0.809017 0.000000
vn -0.951057 0.309016 0.000000
vn -0.951057 -0.309017 0.000001
vn 0.587785 -0.809017 -0.000001
vn 0.951057 -0.309016 -0.000002
vn 0.951056 0.309018 -0.000001
vn 0.571980 0.787261 0.230347
vn 0.000000 0.973109 0.230347
vn -0.571980 0.787261 0.230347
vn -0.925482 0.300705 0.230347
vn -0.925482 -0.300705 0.230347
vn -0.571980 -0.787261 0.230347
vn -0.571979 -0.787261 0.230347
vn 0.000000 -0.973108 0.230347
vn 0.571980 -0.787261 0.230347
vn 0.925482 -0.300705 0.230347
vn 0.925482 0.300705 0.230347
vn 0.580601 0.799127 -0.155880
vn 0.000000 0.987776 -0.155880
vn -0.580601 0.799127 -0.155879
vn -0.939432 0.305237 -0.155880
vn -0.939432 -0.305237 -0.155879
vn -0.580601 -0.799127 -0.155880
vn 0.000000 -0.987776 -0.155880
vn 0.580601 -0.799127 -0.155879
vn 0.939432 -0.305238 -0.155878
vn 0.939432 0.305237 -0.155880
vn 0.951057 0.309017 0.000000
vn 0.951057 -0.309017 0.000000
vn -0.951057 -0.309017 0.000000
vn -0.951057 0.309017 0.000000
vn 0.532079 0.732345 0.424927
vn -0.000001 0.905227 0.424927
vn -0.532079 0.732345 0.424927
vn -0.860923 0.279731 0.424927
vn -0.860922 0.279731 0.424928
vn -0.860922 0.279731 0.424927
vn -0.860923 0.279730 0.424927
vn -0.860923 -0.279730 0.424927
vn -0.532079 -0.732345 0.424927
vn 0.000000 -0.905227 0.424927
vn 0.532080 -0.732344 0.424928
vn 0.532080 -0.732344 0.424927
vn 0.860922 -0.279731 0.424927
vn 0.860923 -0.279731 0.424927
vn 0.860923 0.279730 0.424927
vn 0.000000 0.000001 -1.000000
vn 0.000000 0.000000 -1.000000
vn 0.000000 -0.000001 -1.000000
vn 0.000000 -0.000002 -1.000000
vn 0.000000 -0.000003 -1.000000
vn 0.580601 0.799127 -0.155879
vn 0.000000 0.987776 -0.155879
vn -0.939431 0.305238 -0.155879
vn -0.939432 0.305238 -0.155879
vn -0.939431 -0.305238 -0.155879
vn -0.939432 -0.305238 -0.155879
vn -0.580601 -0.799127 -0.155879
vn 0.000000 -0.987776 -0.155879
vn 0.939431 -0.305238 -0.155879
vn 0.939431 0.305238 -0.155879
vn 0.939432 0.305238 -0.155879
vn -0.132431 -0.096216 -0.986511
vn -0.050584 -0.155682 -0.986511
vn 0.050586 0.155688 0.986510
vn 0.132434 0.096220 0.986510
vn 0.050584 -0.155682 -0.986511
vn -0.050585 0.155687 0.986510
vn 0.132431 -0.096216 -0.986511
vn -0.132431 0.096218 0.986511
vn 0.163693 0.000000 -0.986511
vn -0.163694 -0.000001 0.986511
vn 0.132430 0.096216 -0.986511
vn -0.132434 -0.096220 0.986510
vn 0.050584 0.155681 -0.986511
vn -0.050586 -0.155688 0.986510
vn -0.050584 0.155681 -0.986511
vn 0.050585 -0.155687 0.986510
vn -0.132430 0.096216 -0.986511
vn 0.132431 -0.096218 0.986511
vn -0.163693 -0.000000 -0.986511
vn 0.163694 0.000001 0.986511
vn 0.000000 0.000002 1.000000
vn 0.000000 0.025094 0.999685
vn 0.000000 -0.040582 0.999176
vn 0.000000 -0.040581 0.999176

# Mesh
g pCylinder2
usemtl phong3SG
f 4/4/2 1/1/1 2/2/1
f 2/2/1 3/3/2 4/4/2
f 3/3/4 2/2/3 5/5/3
f 5/5/3 6/6/4 3/3/4
f 6/6/6 5/5/5 7/7/5
f 7/7/5 8/8/6 6/6/6
f 8/8/8 7/7/7 9/9/7
f 9/9/7 10/10/8 8/8/8
f 10/10/11 9/9/9 11/11/10
f 11/11/10 12/12/11 10/10/11
f 12/12/13 11/11/12 13/13/12
f 13/13/12 14/14/13 12/12/13
f 14/14/15 13/13/14 15/15/14
f 15/15/14 16/16/15 14/14/15
f 16/16/17 15/15/16 17/17/16
f 17/17/16 18/18/17 16/16/17
f 18/18/19 17/17/18 19/19/18
f 19/19/18 20/20/19 18/18/19
f 20/22/21 19/21/20 1/1/20
f 1/1/20 4/4/21 20/22/21
f 24/26/22 21/23/22 22/24/23
f 22/24/23 23/25/23 24/26/22
f 23/25/23 22/24/23 25/27/24
f 25/27/24 26/28/24 23/25/23
f 26/28/24 25/27/24 27/29/25
f 27/29/25 28/30/25 26/28/24
f 28/30/25 27/29/25 29/31/25
f 29/31/25 30/32/25 28/30/25
f 30/32/25 29/31/25 31/33/25
f 31/33/25 32/34/25 30/32/25
f 32/34/25 31/33/25 33/35/25
f 33/35/25 34/36/25 32/34/25
f 34/36/25 33/35/25 35/37/25
f 35/37/25 36/38/25 34/36/25
f 36/38/25 35/37/25 37/39/25
f 37/39/25 38/40/25 36/38/25
f 38/40/25 37/39/25 39/41/25
f 39/41/25 40/42/25 38/40/25
f 40/42/25 39/41/25 21/23/22
f 21/23/22 24/26/22 40/42/25
f 42/46/2 24/43/26 23/44/26
f 23/44/26 41/45/26 42/46/2
f 41/45/4 23/44/4 26/47/4
f 26/47/4 43/48/4 41/45/4
f 43/48/6 26/47/6 28/49/6
f 28/49/6 44/50/6 43/48/6
f 44/50/27 28/49/27 30/51/27
f 30/51/27 45/52/27 44/50/27
f 45/52/28 30/51/28 32/53/28
f 32/53/28 46/54/28 45/52/28
f 46/54/13 32/53/13 34/55/13
f 34/55/13 47/56/13 46/54/13
f 47/56/15 34/55/15 36/57/15
f 36/57/15 48/58/15 47/56/15
f 48/58/29 36/57/29 38/59/29
f 38/59/29 49/60/29 48/58/29
f 49/60/30 38/59/30 40/61/30
f 40/61/30 50/62/30 49/60/30
f 50/64/31 40/63/31 24/43/31
f 24/43/31 42/46/31 50/64/31
f 1/1/1 51/65/32 52/66/32
f 52/66/32 2/2/1 1/1/1
f 2/2/3 52/66/33 53/67/33
f 53/67/33 5/5/3 2/2/3
f 5/5/5 53/67/34 54/68/34
f 54/68/34 7/7/5 5/5/5
f 7/7/7 54/68/35 55/69/35
f 55/69/35 9/9/7 7/7/7
f 9/9/9 55/69/36 56/70/36
f 56/70/36 11/11/10 9/9/9
f 11/11/12 56/70/37 57/71/38
f 57/71/38 13/13/12 11/11/12
f 13/13/14 57/71/39 58/72/39
f 58/72/39 15/15/14 13/13/14
f 15/15/16 58/72/40 59/73/40
f 59/73/40 17/17/16 15/15/16
f 17/17/18 59/73/41 60/74/41
f 60/74/41 19/19/18 17/17/18
f 19/21/20 60/75/42 51/65/42
f 51/65/42 1/1/20 19/21/20
f 64/79/43 61/76/43 62/77/43
f 62/77/43 63/78/43 64/79/43
f 63/78/44 62/77/44 65/80/44
f 65/80/44 66/81/44 63/78/44
f 66/81/45 65/80/45 67/82/45
f 67/82/45 68/83/45 66/81/45
f 68/83/46 67/82/46 69/84/46
f 69/84/46 70/85/46 68/83/46
f 70/85/47 69/84/47 71/86/47
f 71/86/47 72/87/47 70/85/47
f 72/87/48 71/86/48 73/88/48
f 73/88/48 74/89/48 72/87/48
f 74/89/49 73/88/49 75/90/49
f 75/90/49 76/91/49 74/89/49
f 76/91/50 75/90/50 77/92/50
f 77/92/50 78/93/50 76/91/50
f 78/93/51 77/92/51 79/94/51
f 79/94/51 80/95/51 78/93/51
f 80/97/52 79/96/52 61/76/52
f 61/76/52 64/79/52 80/97/52
f 39/99/53 20/22/21 4/4/21
f 4/4/21 21/98/53 39/99/53
f 37/101/54 18/18/19 20/20/19
f 20/20/19 39/100/54 37/101/54
f 35/102/17 16/16/17 18/18/17
f 18/18/17 37/101/17 35/102/17
f 33/103/15 14/14/15 16/16/15
f 16/16/15 35/102/15 33/103/15
f 31/104/13 12/12/13 14/14/13
f 14/14/13 33/103/13 31/104/13
f 29/105/55 10/10/11 12/12/11
f 12/12/11 31/104/55 29/105/55
f 27/106/56 8/8/8 10/10/8
f 10/10/8 29/105/56 27/106/56
f 25/107/6 6/6/6 8/8/6
f 8/8/6 27/106/6 25/107/6
f 22/108/4 3/3/4 6/6/4
f 6/6/4 25/107/4 22/108/4
f 21/98/2 4/4/2 3/3/2
f 3/3/2 22/108/2 21/98/2
f 84/112/57 81/109/57 82/110/57
f 82/110/57 83/111/57 84/112/57
f 86/114/58 85/113/58 81/109/58
f 81/109/58 84/112/58 86/114/58
f 88/116/59 87/115/59 85/113/59
f 85/113/59 86/114/59 88/116/59
f 90/118/63 89/117/60 87/115/61
f 87/115/61 88/116/62 90/118/63
f 92/120/64 91/119/64 89/117/64
f 89/117/64 90/118/64 92/120/64
f 94/122/65 93/121/65 91/119/65
f 91/119/65 92/120/65 94/122/65
f 96/124/66 95/123/66 93/121/66
f 93/121/66 94/122/66 96/124/66
f 98/126/67 97/125/67 95/123/67
f 95/123/67 96/124/68 98/126/67
f 100/128/69 99/127/69 97/125/69
f 97/125/69 98/126/70 100/128/69
f 83/111/71 82/110/71 99/129/71
f 99/129/71 100/130/71 83/111/71
f 102/134/73 84/131/72 83/132/72
f 83/132/72 101/133/73 102/134/73
f 104/136/73 102/134/73 101/133/73
f 101/133/73 103/135/73 104/136/73
f 86/138/72 104/136/73 103/135/73
f 103/135/73 88/137/72 86/138/72
f 105/140/73 90/139/73 88/137/72
f 88/137/72 103/135/73 105/140/73
f 106/141/73 105/140/73 103/135/73
f 103/135/73 101/133/73 106/141/73
f 100/142/73 106/141/73 101/133/73
f 101/133/73 83/132/73 100/142/73
f 107/144/73 92/143/73 90/139/73
f 90/139/73 105/140/73 107/144/73
f 108/145/72 107/144/73 105/140/73
f 105/140/73 106/141/73 108/145/72
f 98/146/72 108/145/72 106/141/73
f 106/141/73 100/142/73 98/146/72
f 109/148/74 94/147/74 92/143/73
f 92/143/73 107/144/73 109/148/74
f 110/149/75 109/148/74 107/144/73
f 107/144/73 108/145/72 110/149/75
f 96/150/76 110/149/75 108/145/72
f 108/145/72 98/146/72 96/150/76
f 112/154/77 82/151/77 81/152/77
f 81/152/77 111/153/77 112/154/77
f 111/153/78 81/152/78 85/155/78
f 85/155/78 113/156/78 111/153/78
f 113/156/45 85/155/45 87/157/45
f 87/157/45 114/158/45 113/156/45
f 114/158/79 87/157/79 89/159/79
f 89/159/79 115/160/80 114/158/79
f 115/160/82 89/159/81 91/161/82
f 91/161/82 116/162/81 115/160/82
f 116/162/83 91/161/83 93/163/83
f 93/163/83 117/164/83 116/162/83
f 117/164/84 93/163/84 95/165/84
f 95/165/84 118/166/84 117/164/84
f 118/166/50 95/165/50 97/167/50
f 97/167/50 119/168/50 118/166/50
f 119/168/85 97/167/85 99/169/85
f 99/169/85 120/170/85 119/168/85
f 120/172/87 99/171/86 82/151/87
f 82/151/87 112/154/87 120/172/87
f 61/76/88 112/173/88 111/174/89
f 111/174/89 62/77/89 61/76/88
f 63/78/90 52/175/90 51/176/91
f 51/176/91 64/79/91 63/78/90
f 62/77/89 111/174/89 113/177/92
f 113/177/92 65/80/92 62/77/89
f 66/81/93 53/178/93 52/175/90
f 52/175/90 63/78/90 66/81/93
f 65/80/92 113/177/92 114/179/94
f 114/179/94 67/82/94 65/80/92
f 68/83/95 54/180/95 53/178/93
f 53/178/93 66/81/93 68/83/95
f 67/82/94 114/179/94 115/181/96
f 115/181/96 69/84/96 67/82/94
f 70/85/97 55/182/97 54/180/95
f 54/180/95 68/83/95 70/85/97
f 69/84/96 115/181/96 116/183/98
f 116/183/98 71/86/98 69/84/96
f 72/87/99 56/184/99 55/182/97
f 55/182/97 70/85/97 72/87/99
f 71/86/98 116/183/98 117/185/100
f 117/185/100 73/88/100 71/86/98
f 74/89/101 57/186/101 56/184/99
f 56/184/99 72/87/99 74/89/101
f 73/88/100 117/185/100 118/187/102
f 118/187/102 75/90/102 73/88/100
f 76/91/103 58/188/103 57/186/101
f 57/186/101 74/89/101 76/91/103
f 75/90/102 118/187/102 119/189/104
f 119/189/104 77/92/104 75/90/102
f 78/93/105 59/190/105 58/188/103
f 58/188/103 76/91/103 78/93/105
f 77/92/104 119/189/104 120/191/106
f 120/191/106 79/94/106 77/92/104
f 80/95/107 60/192/107 59/190/105
f 59/190/105 78/93/105 80/95/107
f 79/96/106 120/193/106 112/173/88
f 112/173/88 61/76/88 79/96/106
f 64/79/91 51/176/91 60/194/107
f 60/194/107 80/97/107 64/79/91
f 122/198/23 42/195/25 41/196/25
f 41/196/25 121/197/23 122/198/23
f 124/200/22 122/198/23 121/197/23
f 121/197/23 123/199/23 124/200/22
f 44/202/108 124/200/22 123/199/23
f 123/199/23 43/201/108 44/202/108
f 124/200/109 44/202/109 45/203/109
f 45/203/109 125/204/109 124/200/109
f 122/198/109 124/200/109 125/204/109
f 125/204/109 126/205/109 122/198/109
f 42/195/109 122/198/109 126/205/109
f 126/205/109 50/206/109 42/195/109
f 125/204/25 45/203/25 46/207/25
f 46/207/25 127/208/25 125/204/25
f 126/205/25 125/204/25 127/208/25
f 127/208/25 128/209/25 126/205/25
f 50/206/25 126/205/25 128/209/25
f 128/209/25 49/210/25 50/206/25
f 127/208/110 46/207/110 47/211/110
f 47/211/110 129/212/111 127/208/110
f 128/209/110 127/208/110 129/212/111
f 129/212/111 130/213/111 128/209/110
f 49/210/110 128/209/110 130/213/111
f 130/213/111 48/214/110 49/210/110
